Coordinates
version=1
nRows=37
nColumns=38
inDegrees=no

Units are S.I. units (second, meters, Newtons, ...)
If the header above contains a line with 'inDegrees', this indicates whether rotational values are in degrees (yes) or radians (no).

endheader
time	pelvis_tilt	pelvis_list	pelvis_rotation	pelvis_tx	pelvis_ty	pelvis_tz	hip_flexion_r	hip_adduction_r	hip_rotation_r	knee_angle_r	ankle_angle_r	subtalar_angle_r	mtp_angle_r	hip_flexion_l	hip_adduction_l	hip_rotation_l	knee_angle_l	ankle_angle_l	subtalar_angle_l	mtp_angle_l	lumbar_extension	lumbar_bending	lumbar_rotation	arm_flex_r	arm_add_r	arm_rot_r	elbow_flex_r	pro_sup_r	wrist_flex_r	wrist_dev_r	arm_flex_l	arm_add_l	arm_rot_l	elbow_flex_l	pro_sup_l	wrist_flex_l	wrist_dev_l
0	-0.153543	1.43626	-1.24768	0.400815	1.60643	1.04467	0.205047	0.0510315	0.209596	0.337943	-0.265671	0	0	-0.407286	-0.113788	-0.274376	0.413695	-0.154098	0	0	-0.442764	0.0795894	0.230964	-0.0451623	-0.662976	0.609279	0.938469	0.820282	0	0	0.234079	-0.32789	0.844462	0.666513	0.778188	0	0
0.01	-0.181373	1.4324	-1.21915	0.400901	1.5945	1.0446	0.188044	0.0570441	0.217844	0.325079	-0.28138	0	0	-0.410324	-0.127852	-0.283881	0.435911	-0.16288	0	0	-0.441584	0.0862009	0.231433	-0.0512195	-0.661661	0.606122	0.940993	0.821061	0	0	0.227375	-0.32774	0.836418	0.665253	0.777094	0	0
0.02	-0.202293	1.42962	-1.1998	0.400547	1.5828	1.0447	0.176977	0.0624968	0.222338	0.323459	-0.294842	0	0	-0.411464	-0.138069	-0.286983	0.457065	-0.17405	0	0	-0.44058	0.0901577	0.234205	-0.056526	-0.660063	0.603389	0.942772	0.821945	0	0	0.221778	-0.326607	0.829568	0.662961	0.774976	0	0
0.03	-0.219074	1.42762	-1.18565	0.399968	1.57132	1.04509	0.169928	0.0675122	0.223665	0.329097	-0.304869	0	0	-0.408984	-0.147639	-0.288913	0.482013	-0.187006	0	0	-0.439549	0.0927374	0.237837	-0.0602646	-0.658112	0.602036	0.943019	0.822411	0	0	0.218596	-0.325522	0.827192	0.658752	0.775817	0	0
0.04	-0.281902	1.43841	-1.1267	0.399615	1.55928	1.04506	0.181552	0.0735074	0.224693	0.342583	-0.318411	0	0	-0.384057	-0.159031	-0.291357	0.520151	-0.210813	0	0	-0.472384	0.0944964	0.160156	0.0384329	-0.658815	0.689878	0.950352	0.837846	0	0	0.108473	-0.347741	0.582284	0.753682	0.916146	0	0
0.05	-0.285901	1.43288	-1.12498	0.398878	1.54775	1.0466	0.173794	0.0793963	0.217263	0.359077	-0.321806	0	0	-0.378688	-0.170946	-0.293853	0.55544	-0.232029	0	0	-0.475649	0.0946335	0.165377	0.03647	-0.655997	0.691295	0.947329	0.836303	0	0	0.107234	-0.347286	0.579771	0.751461	0.919377	0	0
0.06	-0.284024	1.42892	-1.12939	0.398085	1.53628	1.04829	0.165115	0.0836543	0.209009	0.370832	-0.324791	0	0	-0.367686	-0.182135	-0.294728	0.597625	-0.255459	0	0	-0.477431	0.0932029	0.171313	0.0337212	-0.652939	0.691623	0.943954	0.835056	0	0	0.107593	-0.347726	0.58149	0.74821	0.923601	0	0
0.07	-0.275019	1.42512	-1.14082	0.397302	1.52487	1.05018	0.153172	0.0862107	0.199278	0.376998	-0.326753	0	0	-0.352992	-0.193046	-0.294584	0.645584	-0.283339	0	0	-0.47901	0.0906392	0.17781	0.0300622	-0.649936	0.690822	0.940736	0.8334	0	0	0.108675	-0.347589	0.58348	0.744956	0.923866	0	0
0.08	-0.258699	1.42049	-1.15909	0.396644	1.51358	1.05234	0.13597	0.0870815	0.186564	0.375662	-0.328864	0	0	-0.336427	-0.203713	-0.293293	0.69687	-0.318243	0	0	-0.481256	0.0877068	0.184709	0.0254776	-0.647564	0.689113	0.938148	0.830954	0	0	0.111583	-0.347982	0.589638	0.741473	0.920683	0	0
0.09	-0.230447	1.41414	-1.18746	0.396267	1.50264	1.05483	0.112506	0.0854162	0.168416	0.366639	-0.332109	0	0	-0.319345	-0.212841	-0.287345	0.749752	-0.351225	0	0	-0.485891	0.0844358	0.19054	0.0205909	-0.646026	0.686478	0.936916	0.82781	0	0	0.116586	-0.349797	0.600294	0.739389	0.914923	0	0
0.1	-0.163261	1.39047	-1.25393	0.395525	1.49259	1.05867	0.0652606	0.0824601	0.141003	0.349597	-0.337036	0	0	-0.321101	-0.222107	-0.279841	0.800463	-0.38706	0	0	-0.496638	0.0858888	0.215178	-0.0141721	-0.653425	0.655207	0.952339	0.816055	0	0	0.121333	-0.254374	0.532898	0.741569	0.132984	0	0
0.11	-0.152317	1.39142	-1.26115	0.396343	1.48103	1.06087	0.0478835	0.078904	0.1237	0.338868	-0.340303	0	0	-0.29376	-0.228684	-0.271511	0.852188	-0.411492	0	0	-0.499099	0.0779472	0.214825	-0.0103614	-0.644997	0.659408	0.938857	0.819911	0	0	0.156398	-0.362266	0.703324	0.72774	0.848086	0	0
0.12	-0.11064	1.37855	-1.29938	0.396474	1.47088	1.06394	0.0139166	0.0746137	0.101105	0.324914	-0.343076	0	0	-0.280239	-0.233457	-0.25977	0.902505	-0.432546	0	0	-0.513984	0.0784995	0.208844	-0.0083295	-0.650708	0.661915	0.950152	0.817288	0	0	0.150997	-0.360285	0.684233	0.730252	0.851772	0	0
0.13	-0.0784738	1.3698	-1.32937	0.396698	1.46097	1.0666	-0.0145079	0.0704028	0.0805141	0.311069	-0.347089	0	0	-0.261353	-0.235805	-0.24735	0.950992	-0.445584	0	0	-0.528399	0.0765292	0.200208	0.000122474	-0.655265	0.669793	0.958897	0.813846	0	0	0.142689	-0.363902	0.664463	0.742411	0.85395	0	0
0.14	-0.051695	1.36208	-1.35417	0.396983	1.45124	1.06911	-0.0385642	0.066625	0.0640023	0.304806	-0.346747	0	0	-0.241512	-0.236962	-0.235004	0.996163	-0.442144	0	0	-0.540102	0.0754337	0.193243	0.00683033	-0.660105	0.676423	0.967423	0.809731	0	0	0.13703	-0.366411	0.650762	0.750865	0.855543	0	0
0.15	-0.0296162	1.35469	-1.37456	0.397294	1.44179	1.07154	-0.0620573	0.0633138	0.0495182	0.297486	-0.347714	0	0	-0.221671	-0.237588	-0.224143	1.03849	-0.422044	0	0	-0.55027	0.0750345	0.188156	0.0120551	-0.665317	0.681416	0.97616	0.805153	0	0	0.13393	-0.367576	0.641418	0.756071	0.855059	0	0
0.16	-0.0220446	1.35617	-1.38344	0.397677	1.43194	1.07339	-0.0756403	0.0607812	0.0410626	0.288965	-0.351176	0	0	-0.193097	-0.237412	-0.217159	1.07781	-0.39419	0	0	-0.55614	0.0748077	0.176089	0.0298834	-0.668418	0.698033	0.980171	0.803281	0	0	0.119173	-0.367085	0.608683	0.76455	0.865687	0	0
0.17	-0.010761	1.35114	-1.39666	0.39788	1.42243	1.0756	-0.097668	0.0588106	0.0323378	0.277619	-0.354883	0	0	-0.173415	-0.237605	-0.215605	1.11085	-0.36879	0	0	-0.562566	0.071321	0.177321	0.034686	-0.67084	0.703677	0.982527	0.797785	0	0	0.117	-0.366568	0.598796	0.768824	0.871326	0	0
0.18	0.0022061	1.34528	-1.41079	0.398242	1.41331	1.07789	-0.120342	0.0562871	0.0224189	0.266764	-0.358599	0	0	-0.154274	-0.235881	-0.212889	1.13925	-0.344234	0	0	-0.569973	0.0678969	0.17881	0.0385437	-0.673649	0.707543	0.985702	0.793462	0	0	0.118454	-0.367197	0.596196	0.771808	0.877543	0	0
0.19	0.0137933	1.34112	-1.42599	0.398343	1.40403	1.07995	-0.140464	0.0535835	0.0138919	0.257402	-0.361847	0	0	-0.13512	-0.233671	-0.214054	1.1622	-0.318584	0	0	-0.575373	0.0630975	0.181992	0.042354	-0.675261	0.711332	0.986923	0.789641	0	0	0.119651	-0.366878	0.593169	0.773153	0.881558	0	0
0.2	0.0293397	1.33726	-1.4438	0.398537	1.39516	1.08193	-0.159617	0.0498744	0.0018629	0.248543	-0.365317	0	0	-0.114908	-0.229655	-0.212463	1.18081	-0.293316	0	0	-0.581096	0.057675	0.183791	0.0465283	-0.675973	0.71414	0.987597	0.785456	0	0	0.121862	-0.366612	0.590107	0.774549	0.881601	0	0
0.21	0.0461066	1.33474	-1.46354	0.398642	1.38636	1.08378	-0.176444	0.0456955	-0.00928638	0.24077	-0.368761	0	0	-0.0942062	-0.224997	-0.212237	1.19363	-0.271541	0	0	-0.585699	0.0510878	0.185992	0.0513034	-0.67532	0.717368	0.986127	0.782162	0	0	0.124914	-0.366131	0.588087	0.774392	0.880981	0	0
0.22	0.0630954	1.3339	-1.48469	0.398576	1.37753	1.08544	-0.19068	0.0413498	-0.0192432	0.23388	-0.372015	0	0	-0.0731162	-0.220174	-0.213868	1.20003	-0.253354	0	0	-0.588655	0.0434215	0.18894	0.0568916	-0.673181	0.72158	0.982093	0.779883	0	0	0.129048	-0.365905	0.588402	0.772035	0.884237	0	0
0.23	0.0815165	1.33444	-1.50815	0.398437	1.36851	1.08692	-0.20329	0.0364431	-0.0286904	0.227019	-0.374736	0	0	-0.0525028	-0.214845	-0.216817	1.1992	-0.238761	0	0	-0.589986	0.0345919	0.192328	0.0623415	-0.669262	0.725487	0.975581	0.778324	0	0	0.132951	-0.365111	0.58823	0.768267	0.887325	0	0
0.24	0.102018	1.33622	-1.53319	0.398419	1.35942	1.08814	-0.214493	0.0309587	-0.0383784	0.220483	-0.376743	0	0	-0.0316292	-0.208909	-0.219355	1.19202	-0.226479	0	0	-0.589809	0.0252955	0.19491	0.0676737	-0.664011	0.729085	0.967437	0.777503	0	0	0.136174	-0.36381	0.586448	0.764119	0.888766	0	0
0.25	0.125086	1.33705	-1.55878	0.398524	1.35104	1.08926	-0.225374	0.0252518	-0.0479554	0.215808	-0.377337	0	0	-0.0105997	-0.201359	-0.217155	1.17969	-0.217126	0	0	-0.591802	0.0163931	0.195311	0.0741848	-0.659333	0.732165	0.960988	0.776418	0	0	0.140542	-0.364154	0.585322	0.762246	0.890885	0	0
0.26	0.14714	1.33884	-1.58587	0.398362	1.3426	1.09014	-0.234243	0.0194511	-0.0518743	0.212738	-0.375953	0	0	0.00911396	-0.194476	-0.21848	1.16083	-0.211431	0	0	-0.593121	0.0065955	0.197501	0.0807583	-0.654741	0.735189	0.954759	0.77608	0	0	0.144695	-0.36463	0.584298	0.760277	0.894092	0	0
0.27	0.167745	1.34236	-1.61324	0.398183	1.33377	1.0907	-0.24131	0.0136656	-0.0524175	0.209596	-0.373781	0	0	0.0281687	-0.188649	-0.223473	1.13639	-0.208056	0	0	-0.592207	-0.00344403	0.20099	0.0866403	-0.649695	0.738167	0.947607	0.776338	0	0	0.147588	-0.36417	0.581842	0.757323	0.896824	0	0
0.28	0.188919	1.34621	-1.63867	0.398418	1.32529	1.091	-0.247577	0.00817081	-0.0539352	0.206839	-0.370806	0	0	0.0484828	-0.18145	-0.223774	1.10871	-0.206291	0	0	-0.591203	-0.0121137	0.202462	0.0926174	-0.644851	0.740794	0.940846	0.776516	0	0	0.150573	-0.363739	0.578598	0.755105	0.899229	0	0
0.29	0.210189	1.34952	-1.6615	0.399056	1.31728	1.09112	-0.253886	0.00311556	-0.056886	0.20467	-0.367022	0	0	0.0690844	-0.173244	-0.21956	1.07832	-0.206187	0	0	-0.591352	-0.0191493	0.201619	0.0989752	-0.640687	0.743101	0.935366	0.776633	0	0	0.154273	-0.364074	0.576012	0.754018	0.902354	0	0
0.3	0.229863	1.35287	-1.68308	0.399764	1.30933	1.09107	-0.259567	-0.00163147	-0.0584601	0.203268	-0.362607	0	0	0.0881156	-0.16548	-0.215919	1.04495	-0.206874	0	0	-0.59176	-0.0257268	0.200894	0.105707	-0.63683	0.745634	0.930031	0.77696	0	0	0.157685	-0.364197	0.572701	0.753098	0.905588	0	0
0.31	0.247445	1.3572	-1.70526	0.400301	1.30094	1.09078	-0.263884	-0.00627629	-0.0567337	0.202431	-0.357868	0	0	0.104768	-0.1596	-0.218285	1.00931	-0.207519	0	0	-0.590622	-0.0328542	0.202357	0.112061	-0.632467	0.748713	0.923414	0.77728	0	0	0.159852	-0.363412	0.567975	0.751188	0.908645	0	0
0.32	0.263141	1.36094	-1.72468	0.401054	1.29273	1.09038	-0.268401	-0.0104289	-0.0556011	0.202249	-0.352939	0	0	0.120096	-0.153778	-0.221087	0.973897	-0.207605	0	0	-0.590284	-0.0388012	0.203046	0.118581	-0.628966	0.752115	0.918064	0.777089	0	0	0.162309	-0.36287	0.563677	0.749679	0.912284	0	0
0.33	0.275613	1.36359	-1.7406	0.401909	1.2848	1.08993	-0.273484	-0.0140538	-0.0541263	0.202784	-0.348152	0	0	0.133152	-0.148099	-0.224468	0.938821	-0.205977	0	0	-0.591639	-0.0437106	0.203474	0.125403	-0.62715	0.755706	0.915264	0.776226	0	0	0.165271	-0.362812	0.559998	0.749261	0.916421	0	0
0.34	0.284998	1.36571	-1.75408	0.402796	1.27702	1.08938	-0.278497	-0.01751	-0.0515205	0.204322	-0.342725	0	0	0.143842	-0.142775	-0.229536	0.9033	-0.201693	0	0	-0.593966	-0.0480945	0.204235	0.132571	-0.626535	0.759524	0.914132	0.774348	0	0	0.167692	-0.362558	0.554731	0.749989	0.920956	0	0
0.35	0.293358	1.36827	-1.7652	0.404027	1.26905	1.08862	-0.283426	-0.0205843	-0.05186	0.205674	-0.337726	0	0	0.153557	-0.13715	-0.233885	0.867056	-0.194156	0	0	-0.595501	-0.0512904	0.204331	0.138559	-0.626162	0.762798	0.913493	0.772323	0	0	0.169753	-0.362131	0.549804	0.750706	0.924456	0	0
0.36	0.299874	1.371	-1.77406	0.405428	1.26099	1.08767	-0.288119	-0.0232669	-0.0525426	0.207583	-0.332324	0	0	0.161911	-0.131613	-0.237476	0.829142	-0.18538	0	0	-0.596494	-0.0535947	0.204424	0.144084	-0.626101	0.766634	0.913044	0.770545	0	0	0.171675	-0.361688	0.545673	0.75124	0.927878	0	0
